<svg width="28" height="28" viewBox="0 0 28 28" fill="none" xmlns="http://www.w3.org/2000/svg">
<path fill-rule="evenodd" clip-rule="evenodd" d="M7.09098 9.87502H14.625C15.2463 9.87502 15.75 10.3787 15.75 11V11C15.75 11.6213 15.2463 12.125 14.625 12.125H7.09098L9.99999 15.034C10.4393 15.4734 10.4393 16.1857 9.99999 16.625V16.625C9.56065 17.0644 8.84834 17.0644 8.409 16.625L3.4911 11.7071C3.10058 11.3166 3.10058 10.6834 3.4911 10.2929L8.409 5.37502C8.84834 4.93568 9.56065 4.93568 9.99999 5.37502V5.37502C10.4393 5.81436 10.4393 6.52667 9.99999 6.96601L7.09098 9.87502Z" fill="currentColor"/>
<path fill-rule="evenodd" clip-rule="evenodd" d="M20.909 18.125H13.375C12.7537 18.125 12.25 17.6213 12.25 17V17C12.25 16.3787 12.7537 15.875 13.375 15.875H20.909L18 12.966C17.5607 12.5267 17.5607 11.8144 18 11.375V11.375C18.4393 10.9357 19.1517 10.9357 19.591 11.375L24.5089 16.2929C24.8994 16.6834 24.8994 17.3166 24.5089 17.7071L19.591 22.625C19.1516 23.0644 18.4393 23.0644 18 22.625V22.625C17.5607 22.1857 17.5607 21.4734 18 21.034L20.909 18.125Z" fill="currentColor"/>
</svg>
