<svg width="24" height="24" viewBox="0 0 24 24" fill="none" xmlns="http://www.w3.org/2000/svg">
  <path d="M12 1.92001C9.35438 1.92001 7.2 4.07439 7.2 6.72001C7.2 8.29876 7.98375 9.68439 9.165 10.56L6.795 14.475C6.77625 14.4694 6.75563 14.4656 6.735 14.46C6.24 14.3269 5.72438 14.4 5.28 14.655C4.36313 15.1856 4.04625 16.3631 4.575 17.28C4.92938 17.895 5.57625 18.24 6.24 18.24C6.56625 18.24 6.89813 18.1594 7.2 17.985C7.64438 17.7281 7.96688 17.31 8.1 16.815C8.23313 16.32 8.16188 15.8044 7.905 15.36C7.82438 15.2213 7.71375 15.0975 7.605 14.985L10.215 10.695L10.47 10.275L10.05 10.035C8.91938 9.36751 8.16 8.13189 8.16 6.72001C8.16 4.59376 9.87375 2.88001 12 2.88001C14.1263 2.88001 15.84 4.59376 15.84 6.72001C15.84 7.11564 15.7856 7.48689 15.675 7.84501L16.59 8.13001C16.7288 7.68189 16.8 7.21126 16.8 6.72001C16.8 4.07439 14.6456 1.92001 12 1.92001ZM12 4.80001C10.9406 4.80001 10.08 5.66064 10.08 6.72001C10.08 7.77939 10.9406 8.64001 12 8.64001C12.1594 8.64001 12.3169 8.61751 12.465 8.58001L14.775 12.765L15 13.185L15.435 12.96C15.9844 12.6563 16.6069 12.48 17.28 12.48C19.4063 12.48 21.12 14.1938 21.12 16.32C21.12 18.4463 19.4063 20.16 17.28 20.16C16.2431 20.16 15.3019 19.7456 14.61 19.08L13.95 19.77C14.8125 20.6006 15.99 21.12 17.28 21.12C19.9256 21.12 22.08 18.9656 22.08 16.32C22.08 13.6744 19.9256 11.52 17.28 11.52C16.6144 11.52 15.9975 11.6944 15.42 11.94L13.305 8.11501C13.68 7.76439 13.92 7.27314 13.92 6.72001C13.92 5.66064 13.0594 4.80001 12 4.80001ZM5.07 11.655C2.97938 12.1763 1.44 14.0756 1.44 16.32C1.44 18.9656 3.59438 21.12 6.24 21.12C8.715 21.12 10.6969 19.2094 10.95 16.8H15.435C15.6488 17.6269 16.3875 18.24 17.28 18.24C18.3394 18.24 19.2 17.3794 19.2 16.32C19.2 15.2606 18.3394 14.4 17.28 14.4C16.3875 14.4 15.6488 15.0131 15.435 15.84H10.08V16.32C10.08 18.4463 8.36625 20.16 6.24 20.16C4.11375 20.16 2.4 18.4463 2.4 16.32C2.4 14.5163 3.64125 13.0163 5.31 12.6L5.07 11.655Z" fill="currentColor"/>
</svg>
